<svg width="151" height="21" viewBox="0 0 151 21" fill="none" xmlns="http://www.w3.org/2000/svg">
<path d="M103.433 9.32143H99.3101V3.7812H103.498C104.374 3.7812 106.41 3.86487 106.41 6.5095C106.41 8.29189 105.411 9.23778 103.433 9.32143V9.32143ZM107.08 11.6572C108.266 11.2068 110.74 10.2673 110.74 6.59315C110.766 5.09247 110.254 3.63189 109.296 2.47497C107.621 0.647539 105.212 0.615364 103.279 0.583191H94.9548V19.308H99.3101V12.4937H102.57L106.307 19.308H111.094L106.784 11.773L107.08 11.6572Z" fill="#6D6C6C"/>
<path d="M46.3865 16.1933C43.3455 16.1933 41.3869 13.7031 41.3869 9.84235C41.3869 6.98537 42.5981 3.86458 45.9935 3.67154H46.2576C47.0368 3.65505 47.8073 3.83653 48.497 4.19895C49.1867 4.56137 49.7729 5.09283 50.2006 5.74349C50.9238 7.00005 51.3016 8.42517 51.2958 9.87452C51.2958 12.7958 50.0073 16.1998 46.3865 16.1998V16.1933ZM53.6603 16.1998L53.8021 16.0003C55.002 14.1627 55.6277 12.0103 55.5996 9.81661C55.6489 7.29078 54.7608 4.83605 53.1062 2.92512C52.2356 1.97114 51.1688 1.21623 49.979 0.712038C48.7892 0.207843 47.5044 -0.0337533 46.2125 0.00379263C44.9504 -0.0313125 43.6956 0.207046 42.5345 0.702455C41.3733 1.19786 40.3334 1.93858 39.4863 2.87365C37.8389 4.82211 36.9634 7.30579 37.0252 9.85521C37.0252 11.2837 37.2893 14.8742 39.7762 17.3194C41.5244 18.9472 43.8289 19.8471 46.219 19.8353C47.8452 19.8047 49.4369 19.3619 50.8448 18.5484L50.993 18.4776L51.1219 18.5806C53.4606 20.3565 54.1435 20.6397 56.0377 21L57.2554 17.9757C55.9423 17.8335 54.7172 17.2478 53.7827 16.3156L53.6603 16.1998Z" fill="#6D6C6C"/>
<path d="M32.4577 8.79972C30.5825 8.26867 28.6669 7.89205 26.7301 7.67366C25.8925 7.55784 24.153 7.32618 24.153 5.69822C24.153 4.63651 25.1967 3.51045 27.1424 3.51045C28.2508 3.54058 29.3357 3.83629 30.3058 4.37269C30.9702 4.77349 31.5752 5.26513 32.1033 5.83334L35.2602 3.54906C33.7011 2.127 31.3624 0.125829 27.2197 0.125829C25.4917 0.096613 23.7904 0.553755 22.3103 1.44494C21.5034 1.96811 20.8486 2.69437 20.412 3.55061C19.9755 4.40685 19.7724 5.36286 19.8234 6.32238C19.793 7.09088 19.9636 7.85403 20.3183 8.53666C20.673 9.21929 21.1997 9.79784 21.8464 10.2153C22.7359 10.7678 23.7217 11.1477 24.7521 11.335C25.7508 11.5473 26.7945 11.6824 27.806 11.8111H27.8769C29.2363 11.9977 31.2851 12.2744 31.2851 13.941C31.2851 15.3116 29.7066 16.3475 27.6256 16.3475C26.3252 16.344 25.0458 16.019 23.9017 15.4017C23.2296 15.05 22.6323 14.5714 22.1428 13.9925L18.8763 16.0901C20.0425 17.4479 22.175 19.7322 27.1939 19.7322C30.3766 19.7322 32.7154 18.8828 34.1328 17.2227C35.0631 16.1222 35.5782 14.7312 35.5888 13.2911C35.6265 12.301 35.3399 11.3256 34.7726 10.5127C34.2052 9.69993 33.388 9.09401 32.4448 8.78684" fill="#6D6C6C"/>
<path d="M69.8272 12.2749C69.8272 13.8578 69.7563 16.1679 66.4061 16.1679C65.5106 16.1679 63.9063 15.9877 63.1847 14.7844C62.8581 13.9996 62.7277 13.1471 62.8046 12.3007V0.583191H58.4235V11.0588C58.4235 13.5104 58.3591 16.85 61.9284 18.7353C63.2644 19.3965 64.7347 19.7421 66.2257 19.7455C67.0246 19.7455 71.1158 19.5782 73.0937 16.3674C74.1116 14.6815 74.1374 12.8347 74.1567 11.0523V0.583191H69.8079L69.8272 12.2749Z" fill="#6D6C6C"/>
<path d="M81.7004 0.583191L74.8389 19.308L79.0782 19.2629L81.4813 11.8116C81.6875 11.1682 82.0676 10.0164 82.4735 8.82597L83.7621 4.96519H84.1937L84.2324 5.20327L86.5453 11.8116L89.0129 19.3144H93.1685L86.3327 0.583191H81.7004Z" fill="#6D6C6C"/>
<path d="M127.199 3.91633V0.583191H113.637V19.308H127.154V15.9234H117.999V11.477H127.199V8.22753H117.999V3.91633H127.199Z" fill="#6D6C6C"/>
<path d="M10.9527 9.78377C10.8413 9.80948 10.725 9.80251 10.6175 9.7637C10.5101 9.72488 10.4161 9.65588 10.347 9.56499L9.53527 8.5097H4.81918L12.4538 19.307H17.3052L13.4396 13.7346C13.4047 13.669 13.3849 13.5965 13.3816 13.5223C13.3826 13.4457 13.404 13.3707 13.4436 13.3051C13.4833 13.2395 13.5397 13.1857 13.6071 13.1491L13.6844 13.104C14.1527 12.8098 14.5851 12.4621 14.9729 12.0681C15.6066 11.4297 16.1157 10.6791 16.4741 9.85454C16.6576 9.44107 16.7979 9.00982 16.8929 8.56761C16.8929 8.42605 16.9444 8.28449 16.9638 8.14292C17.0061 7.8056 17.0298 7.4662 17.0346 7.12626C17.0346 6.79166 17.0346 6.48279 16.9702 6.13532C16.9702 5.96802 16.9187 5.8329 16.8929 5.69777C16.8033 5.25415 16.6628 4.82232 16.4741 4.41085C16.115 3.58475 15.6061 2.83211 14.9729 2.19089C14.3509 1.55531 13.6113 1.04618 12.7953 0.691629C11.9623 0.328295 11.0627 0.14203 10.1538 0.144681H0V19.3263H4.01383V4.62962C4.01198 4.57534 4.02143 4.52127 4.04159 4.47082C4.06174 4.42037 4.09215 4.37464 4.13091 4.33654C4.16966 4.29844 4.21592 4.26878 4.26674 4.24945C4.31756 4.23012 4.37185 4.22153 4.42617 4.22424H9.26467C9.7489 4.21578 10.2321 4.27205 10.7014 4.39154C11.1901 4.49372 11.6459 4.71474 12.0286 5.03501C12.3203 5.28722 12.5537 5.59963 12.7127 5.95068C12.8718 6.30172 12.9527 6.68305 12.9499 7.06835C12.96 7.46506 12.8828 7.85915 12.7236 8.22275C12.5644 8.58634 12.3271 8.91055 12.0286 9.17247C11.7105 9.44637 11.3369 9.64832 10.9333 9.76446" fill="#C8161D"/>
<path d="M131.259 0.588684V8.36815H142.199V19.307H150.001V0.588684H131.259Z" fill="#C8161D"/>
<path d="M140.414 10.1642H131.259V19.3078H140.414V10.1642Z" fill="#9FA0A0"/>
</svg>
